<svg width="274" height="121" viewBox="0 0 274 121" fill="none" xmlns="http://www.w3.org/2000/svg">
<g clip-path="url(#clip0_1363_1726)">
<path d="M49.4716 55.0333L47.9808 55.9349C47.9808 55.9349 47.4227 27.3581 47.9808 19.1766C48.7553 6.47865 48.9053 9.99335 52.4367 11.8551C57.6755 14.6267 57.8004 0.542892 50.6876 1.42783C44.0912 2.24598 38.1861 4.42493 37.8696 18.4503L37.9363 33.7447L30.7985 19.185L25.8512 35.6064C25.8512 35.6064 24.6019 22.4993 22.5613 11.7048C19.4047 -5.00883 -5.91473 -4.57471 1.28133 17.916C4.72111 7.76431 11.3258 13.65 12.5585 20.2119C14.2159 29.0779 25.7013 80.9051 12.2753 75.6456C16.8728 83.56 26.1261 79.0267 29.8574 71.6217C34.2466 62.9142 32.2311 55.4173 33.547 49.4565C37.5282 55.9433 38.0695 68.7748 42.5421 66.7462C46.2234 65.0681 49.7465 63.1146 49.7465 63.1146L49.4799 55.0249L49.4716 55.0333Z" fill="#525050"/>
<path d="M124.28 5.14267L124.455 42.836C126.162 42.5855 138.539 42.2766 142.004 42.4853V34.738L131.959 35.1721L131.593 23.0334L138.731 22.9249V17.8908H131.593V7.59712C131.593 7.59712 141.945 10.7695 142.004 8.34013V0.350658C142.004 0.350658 131.826 0.100204 128.103 0.100204C124.38 0.100204 123.206 0.768081 122.856 1.66137C122.531 2.48786 122.639 3.99893 124.28 5.13432V5.14267Z" fill="#525050"/>
<path d="M75.2239 35.7231C74.8741 23.2922 68.9107 13.3826 61.9062 13.5746C54.9017 13.775 49.4963 24.0102 49.8461 36.4327C50.196 48.8635 56.1594 58.7731 63.1639 58.5811C70.1683 58.3808 75.5737 48.1456 75.2239 35.7231ZM64.0967 48.1372C61.3982 48.2123 59.0661 42.8526 58.8745 36.1572C58.6913 29.4617 60.7235 23.9768 63.4137 23.9016C66.1122 23.8265 68.4443 29.1862 68.6359 35.8817C68.8191 42.5771 66.7869 48.0621 64.0967 48.1372Z" fill="#525050"/>
<path d="M101.81 3.16405V8.47367C100.794 7.56368 99.4528 7.00434 97.9786 7.00434C94.8053 7.00434 92.2317 9.58401 92.2317 12.7648V28.8356L84.5609 10.8363L76.8984 12.7564V51.9858L84.5609 49.6483V27.4163L91.3322 47.9034L97.9786 46.4091V14.6849C97.9786 10.8446 99.6943 10.8446 101.81 10.8446V45.4239L103.725 45.4072C114.411 44.2969 122.89 40.8239 122.89 24.294C122.89 7.76405 113.453 3.16405 101.81 3.16405ZM109.481 34.7296V11.8798C113.653 11.8798 115.744 18.6838 115.744 23.3089C115.744 27.9339 113.662 34.7379 109.481 34.7379V34.7296Z" fill="#525050"/>
<path d="M228.225 60.5931L228.2 27.4413C228.2 24.7114 226.692 22.1985 224.293 20.9128L220.72 19.001L220.545 52.5451C217.572 52.5451 215.157 51.4264 215.157 44.2217V22.5324C215.148 18.0243 215.24 15.8704 203.68 11.7629C206.461 13.4326 207.736 18.6587 207.736 22.9999C207.736 26.0388 207.969 45.6744 207.969 45.6744C207.969 60.3927 219.171 60.7934 220.787 60.8769C220.787 66.9546 232.739 68.9749 233.263 63.2228C232.414 63.9241 228.283 64.1662 228.225 60.5764V60.5931Z" fill="#525050"/>
<path d="M262.055 4.86715V4.82541H237.985C232.188 4.82541 227.324 7.0461 227.324 13.6581C227.324 19.2766 232.23 19.7858 232.23 19.7858C230.864 18.3666 230.514 16.8305 233.796 16.8305L245.464 16.8054V71.3543C245.464 72.1975 245.739 73.1492 246.147 74.1093C248.005 78.4171 252.752 80.8047 257.216 79.3855C258.366 79.0181 259.298 78.4588 259.69 77.6073C258.074 76.8309 257.05 75.1946 257.05 73.3996V16.8054L262.047 16.8722C272 16.8722 267.327 28.3347 266.27 29.6788C270.817 27.6668 273.99 23.1085 273.99 17.8073C273.99 10.9782 268.727 5.38476 262.039 4.86715H262.055Z" fill="#525050"/>
<path d="M233.287 67.9397C235.228 68.9248 240.641 72.331 242.082 73.2493V48.6381L233.287 46.8766V67.9397Z" fill="#525050"/>
<path d="M167.123 5.20115C164.882 5.20115 166.04 1.50278 167.539 1.24398C167.323 1.22728 167.106 1.21058 166.89 1.21058C162.742 1.21058 159.444 4.84216 159.977 9.10822C157.062 4.00732 150.915 0.384087 143.936 0.350693L143.977 42.5354C144.577 42.4937 151.815 42.9612 151.815 42.9612V31.0229C153.805 31.0229 155.879 39.3129 155.879 43.3119L165.465 44.4723C164.599 40.7238 161.601 29.5786 155.671 26.1224C159.36 23.4008 161.759 20.6374 161.759 15.6952C161.759 14.6349 161.626 13.5997 161.368 12.5895C161.601 12.865 161.851 13.1322 162.134 13.3576C164.158 15.0106 166.115 15.3696 167.864 15.1191V44.848L176.576 46.4425L175.86 31.3151H181.881V26.3227H175.452L175.019 15.1943H181.29C182.673 15.1943 183.797 14.0672 183.797 12.6814V5.45995C183.797 5.45995 169.347 5.20115 167.106 5.20115H167.123ZM151.815 21.9648V9.76775C154.197 11.1452 155.796 12.9151 155.796 15.8705C155.796 18.8258 154.197 20.5874 151.815 21.9732V21.9648Z" fill="#525050"/>
<path d="M207.459 55.5006C204.694 41.6839 197.656 33.0849 197.656 33.0849C201.571 30.739 203.928 24.8868 203.653 20.1532C203.12 10.7946 195.324 5.86898 185.938 6.8541L186.096 48.73L194.025 50.9256L193.475 37.8352C195.382 37.8185 198.131 47.7866 198.164 52.2113L207.459 55.5006ZM193.117 28.5684L192.709 15.0189C195.474 15.0022 197.631 17.1895 197.656 21.2886C197.673 24.1187 195.382 27.2243 193.117 28.5684Z" fill="#525050"/>
<path d="M237.684 33.1517C240.434 33.1517 242.664 30.9166 242.664 28.1594C242.664 25.4021 240.434 23.167 237.684 23.167C234.933 23.167 232.703 25.4021 232.703 28.1594C232.703 30.9166 234.933 33.1517 237.684 33.1517Z" fill="#525050"/>
<path d="M233.287 35.5394V50.5917L242.082 53.0294V35.5394H233.287Z" fill="#525050"/>
<path d="M113.484 79.955C102.168 79.955 93 89.1511 93 100.487C93 100.715 93.012 100.944 93.018 101.172C93.1199 103.06 93.6416 105.073 94.5591 106.984C94.607 107.087 94.655 107.189 94.703 107.291C95.2187 108.355 95.8483 109.359 96.5918 110.266C99.3262 113.62 103.482 115.76 108.141 115.76C110.743 115.76 113.148 115.129 115.169 113.999C117.807 112.52 119.768 110.17 120.607 107.207C120.757 106.708 120.877 106.197 120.955 105.674C121.045 105.109 121.087 104.526 121.087 103.937C121.087 103.258 121.021 102.597 120.907 101.948C120.751 100.709 120.338 99.5554 119.714 98.5336C118.197 96.0513 115.462 94.3923 112.344 94.3923C110.402 94.3923 108.609 95.0355 107.163 96.1234C108.219 95.6245 109.394 95.348 110.629 95.348C115.133 95.348 118.784 99.0084 118.784 103.522C118.784 107.754 115.582 111.228 111.475 111.655C111.463 111.655 111.445 111.655 111.433 111.655C111.289 111.655 111.145 111.667 111.001 111.667C109.964 111.667 108.962 111.522 108.009 111.258C103.242 109.942 99.7399 105.572 99.7399 100.373C99.7399 99.7838 99.7879 99.2008 99.8719 98.6358C100.705 93.2263 105.221 89.085 111.757 89.085C122.898 89.085 127.443 98.9844 127.443 104.893C127.443 113.692 120.332 120.821 111.553 120.821C111.115 120.821 110.677 120.797 110.246 120.761C111.301 120.929 112.38 121.019 113.484 121.019C124.799 121.019 133.967 111.823 133.967 100.487C133.967 89.1511 124.793 79.955 113.484 79.955Z" fill="#525050"/>
<path d="M160.89 79.955C149.575 79.955 140.406 89.1511 140.406 100.487C140.406 100.715 140.418 100.944 140.424 101.172C140.526 103.06 141.048 105.073 141.965 106.984C142.013 107.087 142.061 107.189 142.109 107.291C142.625 108.355 143.255 109.359 143.998 110.266C146.732 113.62 150.888 115.76 155.547 115.76C158.15 115.76 160.554 115.129 162.575 113.999C165.213 112.52 167.174 110.17 168.014 107.207C168.164 106.708 168.283 106.197 168.361 105.674C168.451 105.109 168.493 104.526 168.493 103.937C168.493 103.258 168.427 102.597 168.313 101.948C168.158 100.709 167.744 99.5554 167.12 98.5336C165.603 96.0513 162.869 94.3923 159.751 94.3923C157.808 94.3923 156.015 95.0355 154.57 96.1234C155.625 95.6245 156.8 95.348 158.036 95.348C162.539 95.348 166.191 99.0084 166.191 103.522C166.191 107.754 162.989 111.228 158.881 111.655C158.869 111.655 158.851 111.655 158.839 111.655C158.695 111.655 158.551 111.667 158.407 111.667C157.37 111.667 156.369 111.522 155.415 111.258C150.648 109.942 147.146 105.572 147.146 100.373C147.146 99.7838 147.194 99.2008 147.278 98.6358C148.112 93.2263 152.627 89.085 159.163 89.085C170.304 89.085 174.849 98.9844 174.849 104.893C174.849 113.692 167.738 120.821 158.959 120.821C158.521 120.821 158.084 120.797 157.652 120.761C158.707 120.929 159.787 121.019 160.89 121.019C172.205 121.019 181.374 111.823 181.374 100.487C181.374 89.1511 172.199 79.955 160.89 79.955Z" fill="#525050"/>
</g>
<defs>
<clipPath id="clip0_1363_1726">
<rect width="274" height="121" fill="white"/>
</clipPath>
</defs>
</svg>
